<svg height="511pt" viewBox="1 -3 511.99962 511" width="511pt" xmlns="http://www.w3.org/2000/svg"><path d="m411.363281 101.171875c5.824219-14.003906 6.570313-29.617187 2.253907-44.035156-22.332032-6.6875-47.527344-1.21875-65.167969 16.421875-24.074219 24.074218-25.484375 62.234375-4.226563 87.964844l-179.515625 179.511718c-25.644531-24.625-66.394531-24.3125-91.648437.945313-17.640625 17.640625-23.109375 42.835937-16.421875 65.164062 14.417969 4.320313 30.03125 3.574219 44.035156-2.25-9.882813 23.757813-5.164063 52.15625 14.160156 71.484375.003907.003906.003907.003906.007813.007813 25.574218 25.574219 67.042968 25.574219 92.617187-.003907 25.257813-25.257812 25.570313-66.007812.945313-91.652343l179.371094-179.367188c.789062.878907 1.605468 1.746094 2.457031 2.59375 25.574219 25.578125 67.042969 25.578125 92.621093 0 25.578126-25.574219 25.578126-67.042969 0-92.621093-19.324218-19.328126-47.726562-24.046876-71.488281-14.164063zm0 0" fill="#ffceac" fill-rule="evenodd"/><path d="m489.921875 108.265625c-14.253906-14.257813-33.210937-22.109375-53.375-22.109375-3.683594 0-7.332031.261719-10.929687.785156 3.441406-23.269531-4.152344-47.136718-21.347657-64.332031-14.257812-14.257813-33.214843-22.109375-53.382812-22.109375-20.164063 0-39.121094 7.851562-53.382813 22.109375-13.363281 13.367187-21.1875 31.121094-22.03125 49.988281-.703125 15.664063 3.441406 30.988282 11.769532 44.015625l-166.996094 166.996094c-12.902344-9.527344-28.476563-14.683594-44.757813-14.683594-20.164062 0-39.117187 7.851563-53.375 22.109375-14.257812 14.261719-22.113281 33.21875-22.113281 53.382813 0 20.167969 7.855469 39.125 22.113281 53.382812 14.257813 14.257813 33.210938 22.109375 53.375 22.109375 3.683594 0 7.332031-.261718 10.929688-.785156-3.445313 23.269531 4.152343 47.132812 21.347656 64.328125 14.257813 14.257813 33.214844 22.113281 53.382813 22.113281 20.164062 0 39.121093-7.855468 53.378906-22.113281 14.070312-14.066406 21.921875-32.765625 22.109375-52.65625.15625-16.550781-5-32.378906-14.679688-45.476563l165.933594-165.9375c13.597656 11.496094 30.644531 17.757813 48.648437 17.757813 20.167969 0 39.125-7.851563 53.382813-22.113281 29.4375-29.433594 29.4375-77.328125 0-106.761719zm-14.140625 92.621094c-10.480469 10.480469-24.417969 16.253906-39.242188 16.253906-14.820312 0-28.757812-5.773437-39.238281-16.253906-.695312-.695313-1.398437-1.4375-2.085937-2.203125-1.832032-2.046875-4.425782-3.246094-7.171875-3.320313-2.753907-.074219-5.398438.984375-7.339844 2.925781l-179.371094 179.367188c-3.851562 3.851562-3.914062 10.074219-.144531 14 20.761719 21.617188 20.398438 56.453125-.800781 77.65625-10.480469 10.480469-24.417969 16.25-39.238281 16.25-14.824219 0-28.757813-5.769531-39.242188-16.25-15.957031-15.960938-20.667969-39.738281-12-60.578125 1.554688-3.738281.699219-8.046875-2.160156-10.914063-1.914063-1.914062-4.472656-2.925781-7.074219-2.925781-1.292969 0-2.597656.25-3.839844.765625-6.78125 2.820313-13.960937 4.25-21.34375 4.25-14.820312 0-28.753906-5.773437-39.230469-16.25-10.484374-10.484375-16.257812-24.417968-16.257812-39.242187 0-14.820313 5.773438-28.757813 16.253906-39.238281 10.480469-10.480469 24.414063-16.253907 39.234375-16.253907 14.402344 0 28.046875 5.488281 38.421875 15.449219 3.925782 3.769531 10.144532 3.710938 13.996094-.140625l179.511719-179.511719c3.648437-3.648437 3.921875-9.46875.640625-13.441406-18.296875-22.144531-16.753906-54.183594 3.589844-74.527344 10.480468-10.480468 24.417968-16.253906 39.238281-16.253906 14.824219 0 28.757812 5.773438 39.238281 16.253906 15.960938 15.960938 20.671875 39.738282 12.003906 60.578125-1.554687 3.738281-.703125 8.046875 2.160156 10.910157 2.863282 2.867187 7.171876 3.71875 10.914063 2.164062 6.78125-2.820312 13.960937-4.25 21.34375-4.25 14.820313 0 28.753906 5.773438 39.234375 16.25 21.636719 21.636719 21.636719 56.84375 0 78.480469zm0 0"/><path d="m205.136719 248.21875-46.640625 46.636719c-3.902344 3.90625-3.902344 10.238281 0 14.144531 1.953125 1.953125 4.511718 2.929688 7.074218 2.929688 2.558594 0 5.117188-.976563 7.070313-2.929688l46.640625-46.636719c3.902344-3.90625 3.902344-10.238281 0-14.144531-3.90625-3.90625-10.238281-3.90625-14.144531 0zm0 0"/><path d="m226.386719 226.972656-.230469.226563c-3.90625 3.90625-3.90625 10.238281 0 14.144531 1.953125 1.953125 4.511719 2.929688 7.070312 2.929688 2.558594 0 5.121094-.976563 7.074219-2.929688l.226563-.230469c3.90625-3.90625 3.90625-10.238281 0-14.140625-3.90625-3.90625-10.238282-3.90625-14.140625 0zm0 0"/></svg>